# xmcd
#
# Track frame offsets: 
#        150
#        14117
#        30413
#        42560
#        56692
#        67914
#        83520
#        94311
#        109117
#        120492
#        135260
#        151174
#
# Disc length: 2181 seconds
#
# Revision: 0
# Processed by: cddbd v1.5.2PL0 Copyright (c) Steve Scherf et al.
# Submitted via: ExactAudioCopy v1.0b1
#
DISCID=9108830c
DTITLE=Rick Wingerter - Come On Down To The Farm
DYEAR=2005
DGENRE=Bluegrass
TTITLE0=Stuck In The City
TTITLE1=Soldiers Prayer
TTITLE2=Don't Look Down
TTITLE3=Maggie's A Waltzin'
TTITLE4=Hand Of A Friend
TTITLE5=No One Else
TTITLE6=Send Down A Chariot
TTITLE7=Kiss My Rosie's Little Red Cheeks
TTITLE8=Come On Down To The Farm
TTITLE9=Walmart Greeter
TTITLE10=I'm Leavin'
TTITLE11=When I Go
EXTD=
EXTT0=
EXTT1=
EXTT2=
EXTT3=
EXTT4=
EXTT5=
EXTT6=
EXTT7=
EXTT8=
EXTT9=
EXTT10=
EXTT11=
PLAYORDER=
